<svg width="83" height="184" viewBox="0 0 83 184" fill="none" xmlns="http://www.w3.org/2000/svg">
<g opacity="0.7">
<path d="M2.48019 91.7565C2.49203 95.9692 -0.743369 99.3934 -4.74627 99.4046C-8.74918 99.4159 -12.0038 96.0099 -12.0156 91.7972C-12.0275 87.5845 -8.79205 84.1603 -4.78915 84.1491C-0.786243 84.1378 2.46835 87.5438 2.48019 91.7565Z" fill="white"/>
<path fill-rule="evenodd" clip-rule="evenodd" d="M57.053 97.9373C59.81 95.1779 60.4672 93.0329 60.4632 91.5934C60.4591 90.1539 59.7899 88.0126 57.0174 85.2687C54.2296 82.5096 49.8098 79.6788 43.7499 77.1478C31.6705 72.1027 14.4962 68.839 -4.83226 68.8933C-24.1608 68.9477 -41.3164 72.3078 -53.3673 77.4208C-59.4128 79.9857 -63.8166 82.8413 -66.5889 85.6161C-69.3459 88.3756 -70.0031 90.5205 -69.9991 91.96C-69.995 93.3995 -69.3258 95.5408 -66.5533 98.2847C-63.7655 101.044 -59.3457 103.875 -53.2858 106.406C-41.2064 111.451 -24.0321 114.714 -4.70364 114.66C14.6249 114.606 31.7805 111.246 43.8314 106.133C49.8769 103.568 54.2807 100.712 57.053 97.9373ZM-4.6822 122.288C35.3468 122.175 67.7584 108.424 67.7111 91.573C67.6637 74.7222 35.1754 61.1531 -4.85369 61.2655C-44.8827 61.378 -77.2943 75.1296 -77.247 91.9804C-77.1996 108.831 -44.7113 122.4 -4.6822 122.288Z" fill="white"/>
<path fill-rule="evenodd" clip-rule="evenodd" d="M31.1965 38.5137C30.3036 34.6205 28.8669 32.9485 27.6803 32.2321C26.4937 31.5157 24.3973 31.0545 20.7537 32.2087C17.09 33.3693 12.5518 35.9815 7.44066 40.2385C-2.74766 48.724 -14.0162 62.7443 -23.6309 80.3878C-33.2457 98.0312 -39.0541 115.348 -40.8692 128.889C-41.7797 135.682 -41.6307 141.125 -40.7328 145.039C-39.8399 148.933 -38.4032 150.605 -37.2166 151.321C-36.03 152.037 -33.9336 152.499 -30.2901 151.344C-26.6264 150.184 -22.0881 147.572 -16.977 143.315C-6.78865 134.829 4.47985 120.809 14.0946 103.165C23.7093 85.5218 29.5178 68.205 31.3329 54.6638C32.2434 47.8707 32.0944 42.4285 31.1965 38.5137ZM20.3822 106.962C40.2942 70.4221 45.1758 34.0025 31.2857 25.6161C17.3955 17.2296 -10.0065 40.0521 -29.9185 76.5915C-49.8305 113.131 -54.7122 149.551 -40.822 157.937C-26.9319 166.323 0.470184 143.501 20.3822 106.962Z" fill="white"/>
<path fill-rule="evenodd" clip-rule="evenodd" d="M-41.0312 38.7168C-40.1602 34.8186 -38.7329 33.1386 -37.5504 32.4155C-36.3679 31.6924 -34.274 31.2194 -30.6241 32.3532C-26.9539 33.4932 -22.4011 36.0798 -17.2661 40.308C-7.03021 48.7362 4.31693 62.6928 14.0307 80.282C23.7444 97.8712 29.6502 115.155 31.5413 128.686C32.49 135.474 32.3715 140.917 31.4957 144.836C30.6247 148.735 29.1974 150.415 28.0149 151.138C26.8323 151.861 24.7385 152.334 21.0886 151.2C17.4184 150.06 12.8655 147.473 7.73055 143.245C-2.50531 134.817 -13.8524 120.86 -23.5662 103.271C-33.28 85.682 -39.1857 68.3981 -41.0768 54.8674C-42.0255 48.0795 -41.9071 42.6366 -41.0312 38.7168ZM-29.8323 107.103C-49.9494 70.6758 -55.0357 34.2842 -41.1929 25.8198C-27.3501 17.3554 0.179778 40.0235 20.2968 76.4505C40.4139 112.877 45.5002 149.269 31.6574 157.733C17.8146 166.198 -9.7153 143.53 -29.8323 107.103Z" fill="white"/>
</g>
</svg>
